<svg width="32" height="32" viewBox="0 0 32 32" fill="none" xmlns="http://www.w3.org/2000/svg">
<rect width="32" height="32" fill="white"/>
<g clip-path="url(#clip0_467_31)">
<path d="M1.51217 5.43048C4.30598 1.62562 12.249 11.4736 15.9997 16.9496C19.7512 11.4736 27.6942 1.62562 30.4873 5.43048C31.005 6.00644 31.5875 7.97976 29.7248 10.747C29.2078 11.6118 28.3416 14.0308 28.9623 17.8357C28.9623 18.845 28.1121 20.4514 24.3872 18.7218C26.1982 20.1635 29.6104 24.1234 27.4372 27.5827C25.3678 30.6095 20.548 34.1902 17.5247 25.8105L15.9997 22.2661L14.4747 25.8105C11.4521 34.1902 6.63161 30.6095 4.56218 27.5827C2.38905 24.1234 5.80201 20.1635 7.61219 18.7218C3.88736 20.4514 3.03717 18.845 3.03717 17.8357C3.65785 14.0308 2.79241 11.6118 2.27467 10.747C0.412642 7.97976 0.995194 6.00644 1.51217 5.43048Z" stroke="black" stroke-width="0.564583" stroke-linecap="round" stroke-linejoin="round"/>
<path d="M16.0246 15.1774C15.6448 10.6265 19.7463 1 22.8627 1" stroke="black" stroke-width="0.564583" stroke-linecap="round" stroke-linejoin="round"/>
<path d="M15.9729 15.1774C16.3526 10.6265 12.2511 1 9.13477 1" stroke="black" stroke-width="0.564583" stroke-linecap="round" stroke-linejoin="round"/>
</g>
<defs>
<clipPath id="clip0_467_31">
<rect width="31.6167" height="31.6167" fill="white" transform="translate(0 0.191895)"/>
</clipPath>
</defs>
</svg>
