<svg width="450" height="184" viewBox="0 0 450 184" fill="none" xmlns="http://www.w3.org/2000/svg">
<path d="M96.4872 0.599998C99.4205 0.759995 100.887 1.45333 100.887 2.67999C100.887 3.85333 99.4739 4.38666 96.6472 4.28C91.6339 4.17333 88.0605 4.2 85.9272 4.36C79.0472 18.5467 74.3805 29.1067 71.9272 36.04C69.5272 42.9733 68.3005 47.9333 68.2472 50.92C68.1939 53.8533 69.0739 56.1467 70.8872 57.8C72.7539 59.4533 75.3939 60.1467 78.8072 59.88C82.2739 59.56 85.7672 57.56 89.2872 53.88V56.52C86.1939 59.9333 82.5139 61.9067 78.2472 62.44C74.0339 62.9733 70.7539 62.4933 68.4072 61C66.0605 59.4533 64.6205 57.2933 64.0872 54.52C63.6072 51.6933 63.8739 47.9067 64.8872 43.16C65.9005 38.36 71.2072 25.48 80.8072 4.51999C74.5672 4.62666 70.2472 5.24 67.8472 6.35999C65.4472 7.42666 63.7405 8.78666 62.7272 10.44C61.7139 12.04 61.3405 13.56 61.6072 15C61.9272 16.44 62.5405 17.5067 63.4472 18.2C64.4072 18.8933 65.5539 18.8667 66.8872 18.12C68.2739 17.3733 68.5939 17.6133 67.8472 18.84C67.1005 20.0133 65.7139 20.6 63.6872 20.6C61.6605 20.6 59.9539 19.56 58.5672 17.48C57.1805 15.3467 57.3139 12.52 58.9672 9C60.6205 5.42666 63.7139 3.05333 68.2472 1.88C72.8339 0.706661 82.2472 0.279995 96.4872 0.599998ZM118.891 1.32C121.718 2.06666 122.171 5.24 120.251 10.84C118.384 16.3867 113.851 23.5867 106.651 32.44C109.318 30.8933 113.078 30.28 117.931 30.6C123.211 30.92 125.984 32.7333 126.251 36.04C126.038 38.44 123.638 45.4267 119.051 57C118.304 58.5467 118.918 59.0533 120.891 58.52C122.918 57.9867 125.211 56.36 127.771 53.64C130.331 50.92 134.918 44.52 141.531 34.44V36.68C135.344 46.7067 130.464 53.4533 126.891 56.92C123.371 60.3867 120.118 61.9333 117.131 61.56C114.198 61.1333 113.264 59.5067 114.331 56.68L120.811 39.64C121.664 37.08 121.291 35.4267 119.691 34.68C118.144 33.9333 116.358 33.6133 114.331 33.72C112.358 33.8267 110.384 34.3067 108.411 35.16C106.438 36.0133 104.811 37.6933 103.531 40.2L96.0909 58.6C95.3443 60.7333 94.1443 61.7467 92.4909 61.64C90.8909 61.48 90.5176 60.3333 91.3709 58.2L99.9309 37.08L112.331 5.8C113.878 2.01333 116.064 0.519995 118.891 1.32ZM108.011 28.28C111.744 23.7467 114.598 19.48 116.571 15.48C118.598 11.4267 119.691 8.6 119.851 7C120.064 5.34666 119.851 4.36 119.211 4.04C118.571 3.72 117.984 4.14666 117.451 5.32C116.918 6.44 113.771 14.0933 108.011 28.28ZM161.935 33.08C163.588 35 163.241 39.3467 160.895 46.12L156.255 57.24C155.561 59.2133 156.148 59.8 158.015 59C159.881 58.1467 162.201 56.1733 164.975 53.08C167.801 49.9867 172.015 43.8267 177.615 34.6V36.84C172.761 45.5333 168.548 51.72 164.975 55.4C161.401 59.08 158.708 61.1867 156.895 61.72C155.081 62.2533 153.561 62.2267 152.335 61.64C151.108 61.0533 150.975 59.6133 151.935 57.32L153.855 52.6C150.921 55.7467 148.708 57.8267 147.215 58.84C145.721 59.8 144.175 60.4667 142.575 60.84C141.028 61.2133 139.561 61.3733 138.175 61.32C136.788 61.2667 135.615 61.0267 134.655 60.6C133.748 60.12 132.761 59.2133 131.695 57.88C130.628 56.5467 130.121 54.68 130.175 52.28C130.281 49.8267 130.761 47.6667 131.615 45.8C132.468 43.88 133.428 42.1467 134.495 40.6C135.561 39.0533 136.948 37.5333 138.655 36.04C140.361 34.5467 142.628 33.16 145.455 31.88C148.281 30.6 151.321 29.9867 154.575 30.04C157.828 30.0933 160.281 31.1067 161.935 33.08ZM135.935 47.08C134.761 50.4933 134.468 53.08 135.055 54.84C135.641 56.6 136.575 57.6133 137.855 57.88C139.188 58.0933 140.681 57.9333 142.335 57.4C143.988 56.8133 145.641 55.8267 147.295 54.44C149.001 53 150.895 51.1333 152.975 48.84C155.055 46.4933 156.655 43.8267 157.775 40.84C158.948 37.8533 158.841 35.6933 157.455 34.36C156.121 33.0267 153.801 32.7867 150.495 33.64C147.188 34.4933 144.335 35.96 141.935 38.04C139.161 40.6533 137.161 43.6667 135.935 47.08ZM188.834 30.76C197.581 30.6533 202.194 32.36 202.674 35.88C202.781 38.28 200.461 45.32 195.714 57C195.127 58.3867 195.607 58.92 197.154 58.6C198.701 58.28 200.967 56.6 203.954 53.56C206.941 50.4667 211.341 44.04 217.154 34.28V36.52C212.941 43.88 209.474 49.2667 206.754 52.68C204.087 56.0933 201.581 58.4933 199.234 59.88C196.887 61.2133 194.701 61.6667 192.674 61.24C190.647 60.8133 190.087 59.4267 190.994 57.08C193.127 51.5867 195.234 45.72 197.314 39.48C198.167 36.6533 196.861 34.92 193.394 34.28C189.927 33.5867 186.887 33.9067 184.274 35.24C181.714 36.5733 179.607 39.16 177.954 43L172.194 57.24C171.341 59.8 170.034 61.0267 168.274 60.92C166.567 60.8133 166.247 59.5333 167.314 57.08L173.474 41.96C175.021 38.12 175.607 35.6667 175.234 34.6C174.861 33.48 174.114 33.6933 172.994 35.24C171.874 36.7867 171.154 37.2667 170.834 36.68C170.567 36.04 171.154 34.8667 172.594 33.16C174.034 31.4 175.447 30.4933 176.834 30.44C178.274 30.3867 179.047 31.5067 179.154 33.8C182.087 31.88 185.314 30.8667 188.834 30.76ZM219.238 39.8C224.518 34.2 229.558 30.8667 234.358 29.8C239.158 28.7333 241.851 29.0533 242.438 30.76C242.704 31.9333 241.558 33.3467 238.998 35L233.798 37.96L220.838 45.4L231.798 54.92C234.944 57.8 238.171 57.9067 241.478 55.24C244.838 52.5733 250.064 45.56 257.158 34.2V36.28C249.904 49.08 243.584 57.0267 238.198 60.12C236.864 60.8133 235.531 61.0267 234.198 60.76C232.864 60.44 231.558 59.7467 230.278 58.68L216.598 46.92L212.038 58.2C211.238 60.1733 210.144 61.0267 208.758 60.76C207.371 60.44 206.918 59.48 207.398 57.88L227.398 6.6C228.624 3.4 230.064 1.61333 231.718 1.24C233.424 0.813331 234.518 1.72 234.998 3.96C235.531 6.14666 234.624 10.36 232.278 16.6C229.984 22.84 226.358 28.8133 221.398 34.52L219.238 39.8ZM222.838 30.6C226.411 26.12 229.104 21.4533 230.918 16.6C232.784 11.6933 233.744 7.93333 233.798 5.32C233.851 2.65333 232.651 4.73333 230.198 11.56L222.838 30.6ZM236.998 32.12C238.811 31.0533 238.598 30.6267 236.358 30.84C234.118 31 232.064 31.5867 230.198 32.6C228.331 33.56 226.464 34.76 224.598 36.2C222.784 37.64 220.598 39.7733 218.038 42.6L236.998 32.12ZM324.463 0.919998C326.383 0.866662 327.21 1.90666 326.943 4.04C325.877 8.04 324.01 13.8533 321.343 21.48C318.677 29.1067 314.543 40.3867 308.943 55.32C311.29 55.8533 313.77 56.92 316.383 58.52V59.96C313.077 58.52 310.357 57.6667 308.223 57.4C305.237 65.6667 302.437 72.68 299.823 78.44C297.21 84.2 294.223 87.8267 290.863 89.32C287.557 90.8133 284.01 91.1867 280.223 90.44C276.49 89.7467 273.45 88.3067 271.103 86.12C268.757 83.9867 267.637 80.8133 267.743 76.6C267.85 72.3867 269.477 68.2533 272.623 64.2C275.823 60.1467 279.477 57.4 283.583 55.96C287.69 54.52 291.45 53.7733 294.863 53.72C298.277 53.6667 301.557 53.88 304.703 54.36C309.13 42.52 312.463 33.4533 314.703 27.16C316.943 20.8667 319.077 15.3733 321.103 10.68C316.517 20.8133 312.517 28.5467 309.103 33.88C305.69 39.2133 302.17 42.4133 298.543 43.48C294.97 44.5467 291.343 44.4667 287.663 43.24C283.983 42.0133 282.17 38.84 282.223 33.72C282.33 28.5467 283.903 22.1733 286.943 14.6C289.983 6.97333 291.023 3.42666 290.063 3.96C289.157 4.44 288.197 5.48 287.183 7.08C286.223 8.62666 285.503 9.05333 285.023 8.36C284.597 7.66666 285.29 6.12 287.103 3.72C288.917 1.26666 290.943 0.57333 293.183 1.64C295.423 2.70666 295.743 5.24 294.143 9.24C292.597 13.24 291.05 17.7467 289.503 22.76C287.957 27.7733 287.237 31.9333 287.343 35.24C287.503 38.5467 289.343 40.3333 292.863 40.6C296.437 40.8133 299.93 38.4667 303.343 33.56C306.81 28.6 312.17 18.8933 319.423 4.44C320.863 2.09333 322.543 0.919998 324.463 0.919998ZM272.463 76.68C272.463 80.2533 273.53 82.7333 275.663 84.12C277.797 85.56 280.063 86.4133 282.463 86.68C284.917 86.9467 287.183 86.5467 289.263 85.48C291.343 84.4667 293.317 81.9333 295.183 77.88C297.103 73.88 300.01 66.8133 303.903 56.68C297.077 55.4 291.13 55.8267 286.063 57.96C280.997 60.04 277.45 62.8133 275.423 66.28C273.45 69.6933 272.463 73.16 272.463 76.68ZM349.842 36.44C350.962 38.7333 351.309 41.1867 350.882 43.8C350.456 46.36 349.762 48.76 348.802 51C347.842 53.1867 346.296 55.5067 344.162 57.96C346.402 57.32 348.989 55.4533 351.922 52.36C354.856 49.2133 359.176 43.16 364.882 34.2V36.52C360.029 44.68 355.976 50.44 352.722 53.8C349.469 57.1067 346.242 59.32 343.042 60.44C339.842 61.5067 336.856 62.0933 334.082 62.2C331.362 62.2533 328.909 61.96 326.722 61.32C324.536 60.68 322.829 59.7467 321.602 58.52C320.429 57.2933 319.656 56.0667 319.282 54.84C318.909 53.6133 318.776 52.04 318.882 50.12C318.989 48.2 319.362 46.2533 320.002 44.28C320.642 42.2533 321.309 40.6 322.002 39.32C322.749 37.9867 323.896 36.6 325.442 35.16C326.989 33.72 328.882 32.6533 331.122 31.96C333.362 31.2133 335.789 30.8667 338.402 30.92C341.016 30.92 343.282 31.2667 345.202 31.96C347.176 32.6533 348.722 34.1467 349.842 36.44ZM324.082 47.08C323.656 49.5333 323.576 51.6133 323.842 53.32C324.162 55.0267 325.042 56.3867 326.482 57.4C327.976 58.4133 329.629 58.9467 331.442 59C333.309 59.0533 335.096 58.7067 336.802 57.96C338.509 57.2133 339.949 56.0667 341.122 54.52C342.296 52.9733 343.389 51.16 344.402 49.08C345.469 46.9467 346.136 44.68 346.402 42.28C346.669 39.8267 346.029 37.8267 344.482 36.28C342.989 34.7333 340.962 33.9867 338.402 34.04C335.842 34.0933 333.629 34.6267 331.762 35.64C329.896 36.6 328.269 38.12 326.882 40.2C325.496 42.28 324.562 44.5733 324.082 47.08ZM383.292 35.16C384.786 32.6533 386.519 31.3733 388.492 31.32C390.466 31.2667 390.999 32.3333 390.092 34.52C384.759 48.76 381.986 56.6 381.772 58.04C381.559 59.4267 382.466 59.8 384.492 59.16C386.572 58.4667 389.132 56.3333 392.172 52.76C395.212 49.1333 399.319 43 404.492 34.36V36.44C399.746 44.7067 395.719 50.7867 392.412 54.68C389.159 58.5733 386.359 60.8667 384.012 61.56C381.666 62.2533 379.852 62.2533 378.572 61.56C377.346 60.8667 377.132 59.2667 377.932 56.76C378.732 54.2533 380.412 49.5067 382.972 42.52C379.612 48.28 376.812 52.4933 374.572 55.16C372.386 57.7733 370.146 59.5867 367.852 60.6C365.559 61.56 363.212 61.9067 360.812 61.64C358.466 61.32 356.839 60.2 355.932 58.28C355.026 56.36 355.452 53.16 357.212 48.68L362.892 33.16C363.532 31.6667 364.626 31.0533 366.172 31.32C367.772 31.5867 368.359 32.2 367.932 33.16C367.559 34.0667 366.172 37.48 363.772 43.4C361.426 49.2667 360.199 53.3467 360.092 55.64C359.986 57.9333 361.346 58.8667 364.172 58.44C366.999 58.0133 370.519 54.6533 374.732 48.36C378.999 42.0667 381.852 37.6667 383.292 35.16ZM54.3084 93.16C57.5084 92.7867 59.1084 93.3733 59.1084 94.92C59.1084 96.4667 57.5351 97.1867 54.3884 97.08C47.5084 97.5067 40.3351 97.3733 32.8684 96.68C31.6418 103.507 29.5618 111.827 26.6284 121.64L46.9484 121.72C48.4951 121.56 49.0551 122.2 48.6284 123.64C48.2551 125.027 47.3484 125.72 45.9084 125.72L25.2684 125.56C22.9218 132.493 20.6018 138.093 18.3084 142.36C16.0684 146.627 14.0951 149.72 12.3884 151.64C10.6818 153.56 8.8951 154.68 7.02844 155C5.2151 155.267 3.66844 154.973 2.38844 154.12C1.16177 153.267 0.521771 152.093 0.468438 150.6C0.468438 149.053 1.00177 148.787 2.06844 149.8C3.1351 150.813 4.04177 151.533 4.78844 151.96C5.5351 152.333 6.38844 152.04 7.34844 151.08C8.36177 150.12 9.40177 148.867 10.4684 147.32C11.5884 145.72 12.9751 143.293 14.6284 140.04C16.3351 136.733 18.3351 131.88 20.6284 125.48H16.3084C14.8151 125.267 14.0684 124.547 14.0684 123.32C14.0684 122.093 14.9218 121.48 16.6284 121.48L21.9084 121.4C25.2684 110.573 27.2684 102.147 27.9084 96.12C25.3484 95.4267 23.2151 95.5333 21.5084 96.44C19.8018 97.2933 18.9484 98.4667 18.9484 99.96C19.0018 101.4 19.4018 102.387 20.1484 102.92C20.8951 103.4 21.1884 104.093 21.0284 105C20.9218 105.907 20.3884 106.28 19.4284 106.12C18.4684 105.96 17.4284 105.347 16.3084 104.28C15.1884 103.16 14.6551 101.693 14.7084 99.88C14.7618 98.0133 15.3484 96.4933 16.4684 95.32C17.5884 94.0933 18.9751 93.2133 20.6284 92.68C22.2818 92.0933 24.1218 91.88 26.1484 92.04C28.1751 92.2 31.5618 92.5467 36.3084 93.08C41.0551 93.56 47.0551 93.5867 54.3084 93.16ZM77.7328 128.44C78.8528 130.733 79.1995 133.187 78.7728 135.8C78.3461 138.36 77.6528 140.76 76.6928 143C75.7328 145.187 74.1861 147.507 72.0528 149.96C74.2928 149.32 76.8795 147.453 79.8128 144.36C82.7461 141.213 87.0661 135.16 92.7728 126.2V128.52C87.9195 136.68 83.8661 142.44 80.6128 145.8C77.3595 149.107 74.1328 151.32 70.9328 152.44C67.7328 153.507 64.7461 154.093 61.9728 154.2C59.2528 154.253 56.7995 153.96 54.6128 153.32C52.4261 152.68 50.7195 151.747 49.4928 150.52C48.3195 149.293 47.5461 148.067 47.1728 146.84C46.7995 145.613 46.6661 144.04 46.7728 142.12C46.8795 140.2 47.2528 138.253 47.8928 136.28C48.5328 134.253 49.1995 132.6 49.8928 131.32C50.6395 129.987 51.7861 128.6 53.3328 127.16C54.8795 125.72 56.7728 124.653 59.0128 123.96C61.2528 123.213 63.6795 122.867 66.2928 122.92C68.9061 122.92 71.1728 123.267 73.0928 123.96C75.0661 124.653 76.6128 126.147 77.7328 128.44ZM51.9728 139.08C51.5461 141.533 51.4661 143.613 51.7328 145.32C52.0528 147.027 52.9328 148.387 54.3728 149.4C55.8661 150.413 57.5195 150.947 59.3328 151C61.1995 151.053 62.9861 150.707 64.6928 149.96C66.3995 149.213 67.8395 148.067 69.0128 146.52C70.1861 144.973 71.2795 143.16 72.2928 141.08C73.3595 138.947 74.0261 136.68 74.2928 134.28C74.5595 131.827 73.9195 129.827 72.3728 128.28C70.8795 126.733 68.8528 125.987 66.2928 126.04C63.7328 126.093 61.5195 126.627 59.6528 127.64C57.7861 128.6 56.1595 130.12 54.7728 132.2C53.3861 134.28 52.4528 136.573 51.9728 139.08ZM88.7028 120.92C90.3561 119.8 92.0895 119.4 93.9028 119.72C95.7161 120.04 96.5695 120.76 96.4628 121.88C96.4095 122.947 95.8495 124.067 94.7828 125.24C98.1428 123.373 101.369 122.68 104.463 123.16C107.556 123.64 109.903 124.653 111.503 126.2C113.156 127.693 114.356 129.667 115.103 132.12C115.903 134.52 116.889 135.427 118.063 134.84C119.289 134.253 121.743 131.48 125.423 126.52V128.28C122.649 132.387 120.329 135.027 118.463 136.2C116.596 137.32 115.183 136.867 114.223 134.84C113.316 132.76 112.383 131.053 111.423 129.72C110.463 128.333 109.023 127.347 107.103 126.76C105.236 126.173 103.423 126.04 101.663 126.36C99.9028 126.627 98.3828 127.213 97.1028 128.12C95.8228 128.973 94.8361 129.987 94.1428 131.16C93.4495 132.333 91.1295 138.76 87.1828 150.44C86.5428 152.04 85.4228 152.84 83.8228 152.84C82.2761 152.84 81.7695 151.88 82.3028 149.96L88.4628 132.28C89.4228 129.987 89.2895 127.8 88.0628 125.72C86.8361 123.64 87.0495 122.04 88.7028 120.92ZM92.3828 125.4C94.6761 122.413 94.9428 121 93.1828 121.16C91.4761 121.267 91.2095 122.68 92.3828 125.4ZM151.461 92.36C154.554 92.36 156.128 93.6933 156.181 96.36C156.288 98.9733 155.354 101.373 153.381 103.56C151.461 105.693 148.848 107.427 145.541 108.76C143.088 116.333 141.541 124.493 140.901 133.24C140.314 141.987 140.421 147.133 141.221 148.68C142.021 150.227 143.088 150.307 144.421 148.92C145.808 147.48 147.168 145.827 148.501 143.96C149.888 142.093 152.101 138.68 155.141 133.72C155.728 126.787 156.501 121.613 157.461 118.2C158.421 114.787 159.381 111.64 160.341 108.76C161.301 105.88 162.608 102.893 164.261 99.8C165.914 96.7067 167.488 94.92 168.981 94.44C170.528 93.9067 171.861 94.1467 172.981 95.16C174.101 96.12 174.394 98.1733 173.861 101.32C173.381 104.413 172.101 108.893 170.021 114.76C167.994 120.627 164.581 127.32 159.781 134.84C160.154 141.827 160.821 146.413 161.781 148.6C162.794 150.787 163.968 151.427 165.301 150.52C166.688 149.613 168.608 146.627 171.061 141.56C173.514 136.44 176.261 129.56 179.301 120.92C182.394 112.227 185.488 103.507 188.581 94.76C189.008 93.2133 189.994 92.52 191.541 92.68C193.088 92.7867 193.194 94.5733 191.861 98.04C190.581 101.453 188.501 107.373 185.621 115.8C182.741 124.227 179.568 132.44 176.101 140.44C172.634 148.387 169.434 152.973 166.501 154.2C163.568 155.427 161.168 154.947 159.301 152.76C157.434 150.52 156.368 145.88 156.101 138.84C152.688 144.493 150.021 148.307 148.101 150.28C146.181 152.253 144.474 153.507 142.981 154.04C141.541 154.52 140.234 154.36 139.061 153.56C137.941 152.76 137.114 151.053 136.581 148.44C136.101 145.773 136.154 140.28 136.741 131.96C137.381 123.64 138.954 115.72 141.461 108.2C138.741 107.08 136.981 105.613 136.181 103.8C135.434 101.933 135.434 100.733 136.181 100.2C136.928 99.6133 137.701 100.067 138.501 101.56C139.301 103 140.634 104.067 142.501 104.76C145.381 96.4933 148.368 92.36 151.461 92.36ZM146.741 104.68C149.994 103.56 151.861 101.72 152.341 99.16C152.874 96.5467 152.634 95.48 151.621 95.96C150.608 96.3867 148.981 99.2933 146.741 104.68ZM159.301 129.24C163.354 121.027 166.128 114.6 167.621 109.96C169.114 105.32 169.914 101.933 170.021 99.8C170.181 97.6667 169.488 98.04 167.941 100.92C166.448 103.747 164.794 107.747 162.981 112.92C161.221 118.093 159.994 123.533 159.301 129.24ZM212.091 125.08C213.744 127 213.398 131.347 211.051 138.12L206.411 149.24C205.718 151.213 206.304 151.8 208.171 151C210.038 150.147 212.358 148.173 215.131 145.08C217.958 141.987 222.171 135.827 227.771 126.6V128.84C222.918 137.533 218.704 143.72 215.131 147.4C211.558 151.08 208.864 153.187 207.051 153.72C205.238 154.253 203.718 154.227 202.491 153.64C201.264 153.053 201.131 151.613 202.091 149.32L204.011 144.6C201.078 147.747 198.864 149.827 197.371 150.84C195.878 151.8 194.331 152.467 192.731 152.84C191.184 153.213 189.718 153.373 188.331 153.32C186.944 153.267 185.771 153.027 184.811 152.6C183.904 152.12 182.918 151.213 181.851 149.88C180.784 148.547 180.278 146.68 180.331 144.28C180.438 141.827 180.918 139.667 181.771 137.8C182.624 135.88 183.584 134.147 184.651 132.6C185.718 131.053 187.104 129.533 188.811 128.04C190.518 126.547 192.784 125.16 195.611 123.88C198.438 122.6 201.478 121.987 204.731 122.04C207.984 122.093 210.438 123.107 212.091 125.08ZM186.091 139.08C184.918 142.493 184.624 145.08 185.211 146.84C185.798 148.6 186.731 149.613 188.011 149.88C189.344 150.093 190.838 149.933 192.491 149.4C194.144 148.813 195.798 147.827 197.451 146.44C199.158 145 201.051 143.133 203.131 140.84C205.211 138.493 206.811 135.827 207.931 132.84C209.104 129.853 208.998 127.693 207.611 126.36C206.278 125.027 203.958 124.787 200.651 125.64C197.344 126.493 194.491 127.96 192.091 130.04C189.318 132.653 187.318 135.667 186.091 139.08ZM233.07 123.4H241.63C243.124 123.4 243.844 123.88 243.79 124.84C243.79 125.747 243.07 126.2 241.63 126.2H231.95L227.95 137.88C226.084 142.68 225.364 145.827 225.79 147.32C226.27 148.76 227.204 149.8 228.59 150.44C230.03 151.027 231.817 151.187 233.95 150.92C236.084 150.653 238.59 149.373 241.47 147.08C244.35 144.787 249.524 137.747 256.99 125.96V128.12C250.43 139.267 245.177 146.387 241.23 149.48C237.284 152.52 233.55 153.96 230.03 153.8C226.564 153.64 224.03 152.333 222.43 149.88C221.15 147.96 220.83 145.613 221.47 142.84C222.11 140.067 224.03 134.52 227.23 126.2H218.67C216.964 126.2 216.11 125.747 216.11 124.84C216.164 123.933 217.097 123.427 218.91 123.32L228.35 123.24L238.11 96.68C238.964 94.12 240.11 93.0267 241.55 93.4C242.99 93.72 243.577 94.4933 243.31 95.72L233.07 123.4ZM263.249 122.6C265.809 122.12 268.316 122.147 270.769 122.68C273.222 123.16 275.222 124.173 276.769 125.72C278.316 127.267 278.849 128.467 278.369 129.32C277.942 130.173 277.089 129.96 275.809 128.68C274.529 127.4 272.956 126.493 271.089 125.96C269.276 125.373 267.409 125.24 265.489 125.56C263.622 125.88 261.729 126.627 259.809 127.8C257.889 128.92 256.182 130.52 254.689 132.6C253.196 134.68 252.236 136.947 251.809 139.4C251.436 141.853 251.729 144.013 252.689 145.88C253.649 147.693 255.062 149.08 256.929 150.04C258.796 150.947 261.382 151.347 264.689 151.24C269.116 150.92 273.036 149.373 276.449 146.6C279.862 143.827 285.009 137.107 291.889 126.44V128.68C286.289 137.853 281.622 144.307 277.889 148.04C274.156 151.72 270.049 153.773 265.569 154.2C262.476 154.68 259.462 154.547 256.529 153.8C253.649 153.053 251.329 151.667 249.569 149.64C247.596 147.347 246.689 144.6 246.849 141.4C247.062 138.147 247.756 135.507 248.929 133.48C250.156 131.453 251.356 129.827 252.529 128.6C253.756 127.32 255.222 126.12 256.929 125C258.636 123.88 260.742 123.08 263.249 122.6ZM307.875 93.32C310.702 94.0667 311.155 97.24 309.235 102.84C307.369 108.387 302.835 115.587 295.635 124.44C298.302 122.893 302.062 122.28 306.915 122.6C312.195 122.92 314.969 124.733 315.235 128.04C315.022 130.44 312.622 137.427 308.035 149C307.289 150.547 307.902 151.053 309.875 150.52C311.902 149.987 314.195 148.36 316.755 145.64C319.315 142.92 323.902 136.52 330.515 126.44V128.68C324.329 138.707 319.449 145.453 315.875 148.92C312.355 152.387 309.102 153.933 306.115 153.56C303.182 153.133 302.249 151.507 303.315 148.68L309.795 131.64C310.649 129.08 310.275 127.427 308.675 126.68C307.129 125.933 305.342 125.613 303.315 125.72C301.342 125.827 299.369 126.307 297.395 127.16C295.422 128.013 293.795 129.693 292.515 132.2L285.075 150.6C284.329 152.733 283.129 153.747 281.475 153.64C279.875 153.48 279.502 152.333 280.355 150.2L288.915 129.08L301.315 97.8C302.862 94.0133 305.049 92.52 307.875 93.32ZM296.995 120.28C300.729 115.747 303.582 111.48 305.555 107.48C307.582 103.427 308.675 100.6 308.835 99C309.049 97.3467 308.835 96.36 308.195 96.04C307.555 95.72 306.969 96.1467 306.435 97.32C305.902 98.44 302.755 106.093 296.995 120.28ZM328.199 145.08C327.292 147.373 327.186 149.053 327.879 150.12C328.572 151.187 329.852 151.747 331.719 151.8C333.586 151.853 335.932 150.733 338.759 148.44C341.639 146.147 346.786 138.76 354.199 126.28V128.44C347.426 140.173 342.386 147.56 339.079 150.6C335.826 153.64 332.146 154.867 328.039 154.28C326.386 154.28 324.946 153.587 323.719 152.2C322.546 150.813 322.466 148.44 323.479 145.08L330.679 126.52C331.372 124.813 332.466 124.147 333.959 124.52C335.452 124.84 335.772 125.933 334.919 127.8L328.199 145.08ZM334.439 114.68C334.439 113.88 334.706 113.187 335.239 112.6C335.826 112.013 336.519 111.72 337.319 111.72C338.119 111.72 338.812 112.013 339.399 112.6C339.986 113.187 340.279 113.88 340.279 114.68C340.279 115.48 339.986 116.173 339.399 116.76C338.812 117.293 338.119 117.56 337.319 117.56C336.519 117.56 335.826 117.293 335.239 116.76C334.706 116.173 334.439 115.48 334.439 114.68ZM365.865 122.76C374.612 122.653 379.225 124.36 379.705 127.88C379.812 130.28 377.492 137.32 372.745 149C372.159 150.387 372.639 150.92 374.185 150.6C375.732 150.28 377.999 148.6 380.985 145.56C383.972 142.467 388.372 136.04 394.185 126.28V128.52C389.972 135.88 386.505 141.267 383.785 144.68C381.119 148.093 378.612 150.493 376.265 151.88C373.919 153.213 371.732 153.667 369.705 153.24C367.679 152.813 367.119 151.427 368.025 149.08C370.159 143.587 372.265 137.72 374.345 131.48C375.199 128.653 373.892 126.92 370.425 126.28C366.959 125.587 363.919 125.907 361.305 127.24C358.745 128.573 356.639 131.16 354.985 135L349.225 149.24C348.372 151.8 347.065 153.027 345.305 152.92C343.599 152.813 343.279 151.533 344.345 149.08L350.505 133.96C352.052 130.12 352.639 127.667 352.265 126.6C351.892 125.48 351.145 125.693 350.025 127.24C348.905 128.787 348.185 129.267 347.865 128.68C347.599 128.04 348.185 126.867 349.625 125.16C351.065 123.4 352.479 122.493 353.865 122.44C355.305 122.387 356.079 123.507 356.185 125.8C359.119 123.88 362.345 122.867 365.865 122.76ZM416.029 132.68C414.802 136.467 412.296 142.653 408.509 151.24C416.029 145 423.016 136.733 429.469 126.44V128.6C422.856 139.373 415.522 147.827 407.469 153.96C402.509 167.347 399.016 175.293 396.989 177.8C394.962 180.307 392.616 181.88 389.949 182.52C387.336 183.16 384.429 182.973 381.229 181.96C378.029 181 376.109 178.867 375.469 175.56C374.776 172.253 375.282 169.347 376.989 166.84C378.642 164.333 381.309 162.2 384.989 160.44C388.669 158.68 394.589 156.493 402.749 153.88L405.389 147.48C402.722 149.72 399.389 150.947 395.389 151.16C391.442 151.32 388.589 150.52 386.829 148.76C385.122 146.947 384.482 143.853 384.909 139.48C385.336 135.107 387.229 131.4 390.589 128.36C393.949 125.267 397.842 123.4 402.269 122.76C406.696 122.067 410.402 122.6 413.389 124.36C416.429 126.12 417.309 128.893 416.029 132.68ZM400.349 126.76C397.362 127.72 394.882 129.587 392.909 132.36C390.936 135.133 389.816 138.093 389.549 141.24C389.336 144.333 390.056 146.28 391.709 147.08C393.416 147.88 395.202 148.067 397.069 147.64C398.936 147.213 400.802 146.44 402.669 145.32C404.536 144.2 406.136 142.627 407.469 140.6C408.802 138.573 410.056 135.933 411.229 132.68C412.402 129.373 411.629 127.32 408.909 126.52C406.242 125.667 403.389 125.747 400.349 126.76ZM388.589 178.84C390.616 178.093 392.402 176.52 393.949 174.12C395.496 171.773 398.136 165.747 401.869 156.04C394.296 158.28 388.749 160.627 385.229 163.08C381.762 165.533 379.976 168.44 379.869 171.8C379.709 175.16 380.616 177.347 382.589 178.36C384.562 179.427 386.562 179.587 388.589 178.84ZM447.827 94.28C449.214 94.28 449.587 95.2933 448.947 97.32L434.787 137.24C434.041 139.96 432.974 141.32 431.587 141.32C430.201 141.267 429.934 139.987 430.787 137.48L444.867 97.32C445.454 95.2933 446.441 94.28 447.827 94.28ZM428.947 153C429.587 153 430.174 152.733 430.707 152.2C431.294 151.667 431.587 151.053 431.587 150.36C431.587 149.667 431.294 149.08 430.707 148.6C430.174 148.067 429.587 147.8 428.947 147.8C428.361 147.8 427.801 148.067 427.267 148.6C426.734 149.08 426.441 149.667 426.387 150.36C426.387 151.053 426.654 151.667 427.187 152.2C427.774 152.733 428.361 153 428.947 153Z" fill="#FF047D"/>
</svg>
