<svg width="455" height="125" viewBox="0 0 455 125" fill="none" xmlns="http://www.w3.org/2000/svg">
<g filter="url(#filter0_d_309_3)">
<path d="M71.7 6.19999C75.7 5.73333 77.7 6.46666 77.7 8.4C77.7 10.3333 75.7333 11.2333 71.8 11.1C63.2 11.6333 54.2333 11.4667 44.9 10.6C43.3667 19.1333 40.7667 29.5333 37.1 41.8L62.5 41.9C64.4333 41.7 65.1333 42.5 64.6 44.3C64.1333 46.0333 63 46.9 61.2 46.9L35.4 46.7C32.4667 55.3667 29.5667 62.3667 26.7 67.7C23.9 73.0333 21.4333 76.9 19.3 79.3C17.1667 81.7 14.9333 83.1 12.6 83.5C10.3333 83.8333 8.4 83.4667 6.8 82.4C5.26667 81.3333 4.46667 79.8667 4.4 78C4.4 76.0667 5.06667 75.7333 6.4 77C7.73333 78.2667 8.86667 79.1667 9.8 79.7C10.7333 80.1667 11.8 79.8 13 78.6C14.2667 77.4 15.5667 75.8333 16.9 73.9C18.3 71.9 20.0333 68.8667 22.1 64.8C24.2333 60.6667 26.7333 54.6 29.6 46.6H24.2C22.3333 46.3333 21.4 45.4333 21.4 43.9C21.4 42.3667 22.4667 41.6 24.6 41.6L31.2 41.5C35.4 27.9667 37.9 17.4333 38.7 9.89999C35.5 9.03333 32.8333 9.16666 30.7 10.3C28.5667 11.3667 27.5 12.8333 27.5 14.7C27.5667 16.5 28.0667 17.7333 29 18.4C29.9333 19 30.3 19.8667 30.1 21C29.9667 22.1333 29.3 22.6 28.1 22.4C26.9 22.2 25.6 21.4333 24.2 20.1C22.8 18.7 22.1333 16.8667 22.2 14.6C22.2667 12.2667 23 10.3667 24.4 8.89999C25.8 7.36666 27.5333 6.26666 29.6 5.6C31.6667 4.86666 33.9667 4.6 36.5 4.79999C39.0333 5 43.2667 5.43333 49.2 6.1C55.1333 6.7 62.6333 6.73333 71.7 6.19999ZM90.8805 43.3C95.3471 44.0333 98.2805 45.6 99.6805 48C101.08 50.4 101.414 52.8 100.68 55.2C99.9471 57.6 98.0138 59.6667 94.8805 61.4C91.7471 63.1333 88.5471 64.2667 85.2805 64.8C82.0805 65.3333 79.4138 65.7 77.2805 65.9C75.1471 66.1 72.0805 66.4333 68.0805 66.9C67.8805 71.0333 68.9138 74.0333 71.1805 75.9C73.5138 77.7 76.4138 78.7 79.8805 78.9C83.3471 79.0333 86.9805 78.6667 90.7805 77.8C94.5805 76.8667 98.5471 74.3333 102.68 70.2C106.88 66 112.28 58.5667 118.88 47.9V50.6C112.28 61.8 106.647 69.8667 101.98 74.8C97.3805 79.7333 92.0805 82.5333 86.0805 83.2C80.0805 83.8 74.8138 83.2 70.2805 81.4C65.8138 79.5333 63.2138 76 62.4805 70.8C61.7471 65.6 62.7805 60.5667 65.5805 55.7C68.3805 50.8333 72.1805 47.3667 76.9805 45.3C81.7805 43.2333 86.4138 42.5667 90.8805 43.3ZM68.5805 63.3C77.9805 62.5 84.5805 61.4333 88.3805 60.1C92.1805 58.7 94.6805 57.1333 95.8805 55.4C97.1471 53.6 97.1138 51.8333 95.7805 50.1C94.5138 48.3667 92.3805 47.3667 89.3805 47.1C86.4471 46.8333 83.3805 47.4667 80.1805 49C76.9805 50.4667 74.3805 52.4667 72.3805 55C70.3805 57.5333 69.1138 60.3 68.5805 63.3ZM145.393 46.1C147.46 48.5 147.026 53.9333 144.093 62.4L138.293 76.3C137.426 78.7667 138.16 79.5 140.493 78.5C142.826 77.4333 145.726 74.9667 149.193 71.1C152.726 67.2333 157.993 59.5333 164.993 48V50.8C158.926 61.6667 153.66 69.4 149.193 74C144.726 78.6 141.36 81.2333 139.093 81.9C136.826 82.5667 134.926 82.5333 133.393 81.8C131.86 81.0667 131.693 79.2667 132.893 76.4L135.293 70.5C131.626 74.4333 128.86 77.0333 126.993 78.3C125.126 79.5 123.193 80.3333 121.193 80.8C119.26 81.2667 117.426 81.4667 115.693 81.4C113.96 81.3333 112.493 81.0333 111.293 80.5C110.16 79.9 108.926 78.7667 107.593 77.1C106.26 75.4333 105.626 73.1 105.693 70.1C105.826 67.0333 106.426 64.3333 107.493 62C108.56 59.6 109.76 57.4333 111.093 55.5C112.426 53.5667 114.16 51.6667 116.293 49.8C118.426 47.9333 121.26 46.2 124.793 44.6C128.326 43 132.126 42.2333 136.193 42.3C140.26 42.3667 143.326 43.6333 145.393 46.1ZM112.893 63.6C111.426 67.8667 111.06 71.1 111.793 73.3C112.526 75.5 113.693 76.7667 115.293 77.1C116.96 77.3667 118.826 77.1667 120.893 76.5C122.96 75.7667 125.026 74.5333 127.093 72.8C129.226 71 131.593 68.6667 134.193 65.8C136.793 62.8667 138.793 59.5333 140.193 55.8C141.66 52.0667 141.526 49.3667 139.793 47.7C138.126 46.0333 135.226 45.7333 131.093 46.8C126.96 47.8667 123.393 49.7 120.393 52.3C116.926 55.5667 114.426 59.3333 112.893 63.6ZM171.617 44H182.317C184.184 44 185.084 44.6 185.017 45.8C185.017 46.9333 184.117 47.5 182.317 47.5H170.217L165.217 62.1C162.884 68.1 161.984 72.0333 162.517 73.9C163.117 75.7 164.284 77 166.017 77.8C167.817 78.5333 170.051 78.7333 172.717 78.4C175.384 78.0667 178.517 76.4667 182.117 73.6C185.717 70.7333 192.184 61.9333 201.517 47.2V49.9C193.317 63.8333 186.751 72.7333 181.817 76.6C176.884 80.4 172.217 82.2 167.817 82C163.484 81.8 160.317 80.1667 158.317 77.1C156.717 74.7 156.317 71.7667 157.117 68.3C157.917 64.8333 160.317 57.9 164.317 47.5H153.617C151.484 47.5 150.417 46.9333 150.417 45.8C150.484 44.6667 151.651 44.0333 153.917 43.9L165.717 43.8L177.917 10.6C178.984 7.39999 180.417 6.03333 182.217 6.5C184.017 6.89999 184.751 7.86666 184.417 9.39999L171.617 44ZM284.168 5.29999C286.901 5.36666 287.635 7.3 286.368 11.1C277.101 32.9667 271.135 48.3667 268.468 57.3C265.868 66.1667 264.835 71.6667 265.368 73.8C265.901 75.9333 266.935 76.8333 268.468 76.5C270.001 76.1 272.368 74.5 275.568 71.7V75C273.701 77 271.801 78.5667 269.868 79.7C267.935 80.8333 266.201 81.4 264.668 81.4C263.201 81.4 261.835 80.3 260.568 78.1C259.368 75.9 259.735 70.5667 261.668 62.1C263.668 53.5667 269.568 37.9333 279.368 15.2C268.168 34.4 260.668 47.7 256.868 55.1C253.068 62.5 250.435 66.7667 248.968 67.9C247.501 68.9667 245.901 69.2667 244.168 68.8C242.435 68.2667 241.435 66.7333 241.168 64.2C240.968 61.6667 244.901 45.3667 252.968 15.3C245.168 32.1 238.935 46.3 234.268 57.9C229.668 69.4333 226.268 76.3 224.068 78.5C221.935 80.6333 219.701 80.7333 217.368 78.8C215.035 76.8 214.035 74.0333 214.368 70.5C214.701 66.9667 215.835 64.4333 217.768 62.9C219.768 61.3 221.001 60.7333 221.468 61.2C221.935 61.6 221.368 62.6667 219.768 64.4C218.168 66.0667 217.335 68.0667 217.268 70.4C217.201 72.7333 217.701 74.3667 218.768 75.3C219.835 76.1667 221.135 74.9333 222.668 71.6C224.201 68.2 226.068 63.9333 228.268 58.8C230.468 53.6 233.068 47.3667 236.068 40.1C239.135 32.7667 243.968 22.4333 250.568 9.1C252.301 6.36666 254.401 5.06666 256.868 5.19999C259.335 5.33333 260.235 7 259.568 10.2L247.068 60.9C246.135 64.2333 246.301 64.3667 247.568 61.3C261.501 35.8333 271.135 19.0667 276.468 11C278.868 7.06666 281.435 5.16666 284.168 5.29999ZM288.184 71.1C287.051 73.9667 286.918 76.0667 287.784 77.4C288.651 78.7333 290.251 79.4333 292.584 79.5C294.918 79.5667 297.851 78.1667 301.384 75.3C304.984 72.4333 311.418 63.2 320.684 47.6V50.3C312.218 64.9667 305.918 74.2 301.784 78C297.718 81.8 293.118 83.3333 287.984 82.6C285.918 82.6 284.118 81.7333 282.584 80C281.118 78.2667 281.018 75.3 282.284 71.1L291.284 47.9C292.151 45.7667 293.518 44.9333 295.384 45.4C297.251 45.8 297.651 47.1667 296.584 49.5L288.184 71.1ZM295.984 33.1C295.984 32.1 296.318 31.2333 296.984 30.5C297.718 29.7667 298.584 29.4 299.584 29.4C300.584 29.4 301.451 29.7667 302.184 30.5C302.918 31.2333 303.284 32.1 303.284 33.1C303.284 34.1 302.918 34.9667 302.184 35.7C301.451 36.3667 300.584 36.7 299.584 36.7C298.584 36.7 297.718 36.3667 296.984 35.7C296.318 34.9667 295.984 34.1 295.984 33.1ZM335.267 43.2C346.201 43.0667 351.967 45.2 352.567 49.6C352.701 52.6 349.801 61.4 343.867 76C343.134 77.7333 343.734 78.4 345.667 78C347.601 77.6 350.434 75.5 354.167 71.7C357.901 67.8333 363.401 59.8 370.667 47.6V50.4C365.401 59.6 361.067 66.3333 357.667 70.6C354.334 74.8667 351.201 77.8667 348.267 79.6C345.334 81.2667 342.601 81.8333 340.067 81.3C337.534 80.7667 336.834 79.0333 337.967 76.1C340.634 69.2333 343.267 61.9 345.867 54.1C346.934 50.5667 345.301 48.4 340.967 47.6C336.634 46.7333 332.834 47.1333 329.567 48.8C326.367 50.4667 323.734 53.7 321.667 58.5L314.467 76.3C313.401 79.5 311.767 81.0333 309.567 80.9C307.434 80.7667 307.034 79.1667 308.367 76.1L316.067 57.2C318.001 52.4 318.734 49.3333 318.267 48C317.801 46.6 316.867 46.8667 315.467 48.8C314.067 50.7333 313.167 51.3333 312.767 50.6C312.434 49.8 313.167 48.3333 314.967 46.2C316.767 44 318.534 42.8667 320.267 42.8C322.067 42.7333 323.034 44.1333 323.167 47C326.834 44.6 330.867 43.3333 335.267 43.2ZM374.872 45C376.939 45.1333 377.505 46.3333 376.572 48.6C375.172 52.8 371.105 63.7333 364.372 81.4C367.572 80.1333 370.839 78.4 374.172 76.2C377.505 73.9333 381.205 70.6667 385.272 66.4C389.405 62.0667 394.572 55.7 400.772 47.3V50C395.772 56.8 391.072 62.5333 386.672 67.2C382.339 71.8667 378.405 75.4 374.872 77.8C371.339 80.1333 367.439 82.3 363.172 84.3L355.372 105.4C352.772 113 350.439 117.333 348.372 118.4C346.305 119.533 344.639 119.133 343.372 117.2C342.105 115.333 341.605 113.033 341.872 110.3C342.139 107.633 342.772 104.9 343.772 102.1C344.772 99.3667 346.005 96.9333 347.472 94.8C348.939 92.6 350.405 90.7333 351.872 89.2C353.272 87.6 355.172 85.9333 357.572 84.2L370.772 48.2C371.439 45.8667 372.805 44.8 374.872 45ZM348.072 97.4C346.272 100.733 345.072 103.933 344.472 107C343.805 110.133 343.739 112.4 344.272 113.8C344.805 115.2 345.672 114.6 346.872 112C349.072 106.667 352.239 98.5 356.372 87.5C352.572 90.7667 349.805 94.0667 348.072 97.4ZM375.372 33.1C375.372 32.1 375.705 31.2333 376.372 30.5C377.105 29.7667 377.972 29.4 378.972 29.4C379.972 29.4 380.839 29.7667 381.572 30.5C382.305 31.2333 382.672 32.1 382.672 33.1C382.672 34.1 382.305 34.9667 381.572 35.7C380.839 36.3667 379.972 36.7 378.972 36.7C377.972 36.7 377.105 36.3667 376.372 35.7C375.705 34.9667 375.372 34.1 375.372 33.1ZM423.555 48.7C425.421 45.5667 427.588 43.9667 430.055 43.9C432.521 43.8333 433.188 45.1667 432.055 47.9C425.388 65.7 421.921 75.5 421.655 77.3C421.388 79.0333 422.521 79.5 425.055 78.7C427.655 77.8333 430.855 75.1667 434.655 70.7C438.455 66.1667 443.588 58.5 450.055 47.7V50.3C444.121 60.6333 439.088 68.2333 434.955 73.1C430.888 77.9667 427.388 80.8333 424.455 81.7C421.521 82.5667 419.255 82.5667 417.655 81.7C416.121 80.8333 415.855 78.8333 416.855 75.7C417.855 72.5667 419.955 66.6333 423.155 57.9C418.955 65.1 415.455 70.3667 412.655 73.7C409.921 76.9667 407.121 79.2333 404.255 80.5C401.388 81.7 398.455 82.1333 395.455 81.8C392.521 81.4 390.488 80 389.355 77.6C388.221 75.2 388.755 71.2 390.955 65.6L398.055 46.2C398.855 44.3333 400.221 43.5667 402.155 43.9C404.155 44.2333 404.888 45 404.355 46.2C403.888 47.3333 402.155 51.6 399.155 59C396.221 66.3333 394.688 71.4333 394.555 74.3C394.421 77.1667 396.121 78.3333 399.655 77.8C403.188 77.2667 407.588 73.0667 412.855 65.2C418.188 57.3333 421.755 51.8333 423.555 48.7Z" fill="#FF047D"/>
</g>
<defs>
<filter id="filter0_d_309_3" x="0.400391" y="0.5" width="453.654" height="123.6" filterUnits="userSpaceOnUse" color-interpolation-filters="sRGB">
<feFlood flood-opacity="0" result="BackgroundImageFix"/>
<feColorMatrix in="SourceAlpha" type="matrix" values="0 0 0 0 0 0 0 0 0 0 0 0 0 0 0 0 0 0 127 0" result="hardAlpha"/>
<feOffset/>
<feGaussianBlur stdDeviation="2"/>
<feComposite in2="hardAlpha" operator="out"/>
<feColorMatrix type="matrix" values="0 0 0 0 0 0 0 0 0 0 0 0 0 0 0 0 0 0 0.25 0"/>
<feBlend mode="normal" in2="BackgroundImageFix" result="effect1_dropShadow_309_3"/>
<feBlend mode="normal" in="SourceGraphic" in2="effect1_dropShadow_309_3" result="shape"/>
</filter>
</defs>
</svg>
