<svg width="580" height="180" viewBox="0 0 580 180" fill="none" xmlns="http://www.w3.org/2000/svg">
<g filter="url(#filter0_d_309_2)">
<path d="M36.8 26.65C31.8 31.45 29.55 32.35 30.05 29.35C30.55 26.35 33.15 22.55 37.85 17.95C42.65 13.35 48.15 10.15 54.35 8.35C60.55 6.54999 66.8 5.74999 73.1 5.94999C79.5 6.04999 85.65 7.6 91.55 10.6C97.45 13.6 100.9 18.15 101.9 24.25C103 30.35 103 36.15 101.9 41.65C100.8 47.15 98.65 51.9 95.45 55.9C92.25 59.9 88.1 62.9 83 64.9C77.9 66.9 71.95 68.05 65.15 68.35C58.35 68.65 50.15 68.5 40.55 67.9L25.4 110.35C22.7 117.45 19.65 121.55 16.25 122.65C12.95 123.65 10.45 123.65 8.75 122.65C7.15 121.65 6.1 119.9 5.6 117.4C5.1 114.8 6.25 114.4 9.05 116.2C11.85 118 14.35 116.1 16.55 110.5C18.85 104.9 24.15 90.45 32.45 67.15C24.55 66.15 20.8 64.6 21.2 62.5C21.7 60.4 26.1 59.95 34.4 61.15L49.1 21.55C50.2 18.65 52.1 17.3 54.8 17.5C57.6 17.6 58.45 19.1 57.35 22L42.8 62.05C53.9 62.95 63.45 62.6 71.45 61C79.45 59.4 85.2 56.1 88.7 51.1C92.2 46.1 94.05 39.9 94.25 32.5C94.45 25.1 92.25 19.9 87.65 16.9C83.15 13.9 77.5 12.45 70.7 12.55C63.9 12.65 57.8 13.8 52.4 16C47.1 18.2 41.9 21.75 36.8 26.65ZM149.006 73.45C151.106 77.75 151.756 82.35 150.956 87.25C150.156 92.05 148.856 96.55 147.056 100.75C145.256 104.85 142.356 109.2 138.356 113.8C142.556 112.6 147.406 109.1 152.906 103.3C158.406 97.4 166.506 86.05 177.206 69.25V73.6C168.106 88.9 160.506 99.7 154.406 106C148.306 112.2 142.256 116.35 136.256 118.45C130.256 120.45 124.656 121.55 119.456 121.75C114.356 121.85 109.756 121.3 105.656 120.1C101.556 118.9 98.3559 117.15 96.0559 114.85C93.8559 112.55 92.4059 110.25 91.7059 107.95C91.0059 105.65 90.7559 102.7 90.9559 99.1C91.1559 95.5 91.8559 91.85 93.0559 88.15C94.2559 84.35 95.5059 81.25 96.8059 78.85C98.2059 76.35 100.356 73.75 103.256 71.05C106.156 68.35 109.706 66.35 113.906 65.05C118.106 63.65 122.656 63 127.556 63.1C132.456 63.1 136.706 63.75 140.306 65.05C144.006 66.35 146.906 69.15 149.006 73.45ZM100.706 93.4C99.9059 98 99.7559 101.9 100.256 105.1C100.856 108.3 102.506 110.85 105.206 112.75C108.006 114.65 111.106 115.65 114.506 115.75C118.006 115.85 121.356 115.2 124.556 113.8C127.756 112.4 130.456 110.25 132.656 107.35C134.856 104.45 136.906 101.05 138.806 97.15C140.806 93.15 142.056 88.9 142.556 84.4C143.056 79.8 141.856 76.05 138.956 73.15C136.156 70.25 132.356 68.85 127.556 68.95C122.756 69.05 118.606 70.05 115.106 71.95C111.606 73.75 108.556 76.6 105.956 80.5C103.356 84.4 101.606 88.7 100.706 93.4ZM169.575 59.35C172.675 57.25 175.925 56.5 179.325 57.1C182.725 57.7 184.325 59.05 184.125 61.15C184.025 63.15 182.975 65.25 180.975 67.45C187.275 63.95 193.325 62.65 199.125 63.55C204.925 64.45 209.325 66.35 212.325 69.25C215.425 72.05 217.675 75.75 219.075 80.35C220.575 84.85 222.425 86.55 224.625 85.45C226.925 84.35 231.525 79.15 238.425 69.85V73.15C233.225 80.85 228.875 85.8 225.375 88C221.875 90.1 219.225 89.25 217.425 85.45C215.725 81.55 213.975 78.35 212.175 75.85C210.375 73.25 207.675 71.4 204.075 70.3C200.575 69.2 197.175 68.95 193.875 69.55C190.575 70.05 187.725 71.15 185.325 72.85C182.925 74.45 181.075 76.35 179.775 78.55C178.475 80.75 174.125 92.8 166.725 114.7C165.525 117.7 163.425 119.2 160.425 119.2C157.525 119.2 156.575 117.4 157.575 113.8L169.125 80.65C170.925 76.35 170.675 72.25 168.375 68.35C166.075 64.45 166.475 61.45 169.575 59.35ZM176.475 67.75C180.775 62.15 181.275 59.5 177.975 59.8C174.775 60 174.275 62.65 176.475 67.75ZM248.955 64H265.005C267.805 64 269.155 64.9 269.055 66.7C269.055 68.4 267.705 69.25 265.005 69.25H246.855L239.355 91.15C235.855 100.15 234.505 106.05 235.305 108.85C236.205 111.55 237.955 113.5 240.555 114.7C243.255 115.8 246.605 116.1 250.605 115.6C254.605 115.1 259.305 112.7 264.705 108.4C270.105 104.1 279.805 90.9 293.805 68.8V72.85C281.505 93.75 271.655 107.1 264.255 112.9C256.855 118.6 249.855 121.3 243.255 121C236.755 120.7 232.005 118.25 229.005 113.65C226.605 110.05 226.005 105.65 227.205 100.45C228.405 95.25 232.005 84.85 238.005 69.25H221.955C218.755 69.25 217.155 68.4 217.155 66.7C217.255 65 219.005 64.05 222.405 63.85L240.105 63.7L258.405 13.9C260.005 9.09999 262.155 7.04999 264.855 7.74999C267.555 8.34999 268.655 9.79999 268.155 12.1L248.955 64ZM306.14 60.25C314.94 50.95 320.84 43.9 323.84 39.1C326.84 34.2 328.89 29.45 329.99 24.85C331.09 20.15 330.74 15.9 328.94 12.1C327.14 8.29999 324.39 11.2 320.69 20.8L306.14 60.25ZM304.04 65.65H319.79C323.19 65.65 324.99 66.65 325.19 68.65C325.39 70.65 323.49 71.65 319.49 71.65H301.79L273.44 152.8C267.84 167.4 266.69 173.6 269.99 171.4C273.19 169.2 275.79 166.65 277.79 163.75C279.89 160.85 282.14 157.25 284.54 152.95C287.04 148.65 288.84 143.6 289.94 137.8C291.14 132 291.64 127 291.44 122.8C291.34 118.6 290.69 114.6 289.49 110.8C288.39 106.9 289.24 105.3 292.04 106C294.24 107.7 295.99 109.45 297.29 111.25C298.59 112.95 300.09 114.3 301.79 115.3C303.49 116.2 305.99 115.9 309.29 114.4C312.59 112.9 316.89 109.3 322.19 103.6C327.49 97.9 336.09 86.45 347.99 69.25V73.6C337.99 88.8 330.09 99.55 324.29 105.85C318.59 112.15 313.74 116.1 309.74 117.7C305.84 119.2 302.69 119.4 300.29 118.3C297.99 117.1 295.24 114.05 292.04 109.15C293.64 115.35 294.24 121.5 293.84 127.6C293.44 133.6 292.49 138.95 290.99 143.65C289.59 148.35 287.64 152.85 285.14 157.15C282.64 161.45 279.69 165.45 276.29 169.15C272.89 172.85 269.79 174.85 266.99 175.15C264.09 175.55 262.34 174.1 261.74 170.8C261.14 167.6 262.39 161.85 265.49 153.55L293.39 71.65H278.54C274.64 71.85 272.64 70.9 272.54 68.8C272.54 66.6 274.59 65.55 278.69 65.65H295.34L313.49 17.05C315.99 9.44999 319.54 5.49999 324.14 5.19999C328.74 4.89999 331.74 7.65 333.14 13.45C334.54 19.25 333.14 26.4 328.94 34.9C324.74 43.4 316.44 53.65 304.04 65.65ZM387.775 73.45C389.875 77.75 390.525 82.35 389.725 87.25C388.925 92.05 387.625 96.55 385.825 100.75C384.025 104.85 381.125 109.2 377.125 113.8C381.325 112.6 386.175 109.1 391.675 103.3C397.175 97.4 405.275 86.05 415.975 69.25V73.6C406.875 88.9 399.275 99.7 393.175 106C387.075 112.2 381.025 116.35 375.025 118.45C369.025 120.45 363.425 121.55 358.225 121.75C353.125 121.85 348.525 121.3 344.425 120.1C340.325 118.9 337.125 117.15 334.825 114.85C332.625 112.55 331.175 110.25 330.475 107.95C329.775 105.65 329.525 102.7 329.725 99.1C329.925 95.5 330.625 91.85 331.825 88.15C333.025 84.35 334.275 81.25 335.575 78.85C336.975 76.35 339.125 73.75 342.025 71.05C344.925 68.35 348.475 66.35 352.675 65.05C356.875 63.65 361.425 63 366.325 63.1C371.225 63.1 375.475 63.75 379.075 65.05C382.775 66.35 385.675 69.15 387.775 73.45ZM339.475 93.4C338.675 98 338.525 101.9 339.025 105.1C339.625 108.3 341.275 110.85 343.975 112.75C346.775 114.65 349.875 115.65 353.275 115.75C356.775 115.85 360.125 115.2 363.325 113.8C366.525 112.4 369.225 110.25 371.425 107.35C373.625 104.45 375.675 101.05 377.575 97.15C379.575 93.15 380.825 88.9 381.325 84.4C381.825 79.8 380.625 76.05 377.725 73.15C374.925 70.25 371.125 68.85 366.325 68.95C361.525 69.05 357.375 70.05 353.875 71.95C350.375 73.75 347.325 76.6 344.725 80.5C342.125 84.4 340.375 88.7 339.475 93.4ZM462.944 73.15C448.244 97.35 436.844 112.05 428.744 117.25C424.944 120.65 420.544 122.25 415.544 122.05C410.544 121.85 406.694 120.5 403.994 118C401.194 115.2 400.644 110.55 402.344 104.05C413.744 73.05 424.944 44.35 435.944 17.95C438.044 12.85 440.494 9.54999 443.294 8.04999C446.194 6.54999 448.394 6.89999 449.894 9.09999C451.494 11.2 451.944 14.7 451.244 19.6C450.544 24.5 448.944 29.9 446.444 35.8C443.944 41.6 440.744 47.5 436.844 53.5C433.044 59.4 428.544 65.25 423.344 71.05L412.394 98.5C410.494 103.6 409.544 107.55 409.544 110.35C409.544 113.15 411.194 115.15 414.494 116.35C417.894 117.55 422.944 116.05 429.644 111.85C436.444 107.55 447.544 93.35 462.944 69.25V73.15ZM448.694 12.55C447.894 10.35 445.144 15.55 440.444 28.15L425.594 65.05C428.794 60.95 431.744 56.95 434.444 53.05C437.144 49.05 439.894 44.15 442.694 38.35C445.494 32.45 447.394 27.25 448.394 22.75C449.494 18.15 449.594 14.75 448.694 12.55ZM458.083 104.65C456.383 108.95 456.183 112.1 457.483 114.1C458.783 116.1 461.183 117.15 464.683 117.25C468.183 117.35 472.583 115.25 477.883 110.95C483.283 106.65 492.933 92.8 506.833 69.4V73.45C494.133 95.45 484.683 109.3 478.483 115C472.383 120.7 465.483 123 457.783 121.9C454.683 121.9 451.983 120.6 449.683 118C447.483 115.4 447.333 110.95 449.233 104.65L462.733 69.85C464.033 66.65 466.083 65.4 468.883 66.1C471.683 66.7 472.283 68.75 470.683 72.25L458.083 104.65ZM469.783 47.65C469.783 46.15 470.283 44.85 471.283 43.75C472.383 42.65 473.683 42.1 475.183 42.1C476.683 42.1 477.983 42.65 479.083 43.75C480.183 44.85 480.733 46.15 480.733 47.65C480.733 49.15 480.183 50.45 479.083 51.55C477.983 52.55 476.683 53.05 475.183 53.05C473.683 53.05 472.383 52.55 471.283 51.55C470.283 50.45 469.783 49.15 469.783 47.65ZM546.857 73.45C548.957 77.75 549.607 82.35 548.807 87.25C548.007 92.05 546.707 96.55 544.907 100.75C543.107 104.85 540.207 109.2 536.207 113.8C540.407 112.6 545.257 109.1 550.757 103.3C556.257 97.4 564.357 86.05 575.057 69.25V73.6C565.957 88.9 558.357 99.7 552.257 106C546.157 112.2 540.107 116.35 534.107 118.45C528.107 120.45 522.507 121.55 517.307 121.75C512.207 121.85 507.607 121.3 503.507 120.1C499.407 118.9 496.207 117.15 493.907 114.85C491.707 112.55 490.257 110.25 489.557 107.95C488.857 105.65 488.607 102.7 488.807 99.1C489.007 95.5 489.707 91.85 490.907 88.15C492.107 84.35 493.357 81.25 494.657 78.85C496.057 76.35 498.207 73.75 501.107 71.05C504.007 68.35 507.557 66.35 511.757 65.05C515.957 63.65 520.507 63 525.407 63.1C530.307 63.1 534.557 63.75 538.157 65.05C541.857 66.35 544.757 69.15 546.857 73.45ZM498.557 93.4C497.757 98 497.607 101.9 498.107 105.1C498.707 108.3 500.357 110.85 503.057 112.75C505.857 114.65 508.957 115.65 512.357 115.75C515.857 115.85 519.207 115.2 522.407 113.8C525.607 112.4 528.307 110.25 530.507 107.35C532.707 104.45 534.757 101.05 536.657 97.15C538.657 93.15 539.907 88.9 540.407 84.4C540.907 79.8 539.707 76.05 536.807 73.15C534.007 70.25 530.207 68.85 525.407 68.95C520.607 69.05 516.457 70.05 512.957 71.95C509.457 73.75 506.407 76.6 503.807 80.5C501.207 84.4 499.457 88.7 498.557 93.4Z" fill="#FF047D" fill-opacity="0.8" shape-rendering="crispEdges"/>
</g>
<defs>
<filter id="filter0_d_309_2" x="0.849609" y="0.75" width="578.208" height="179" filterUnits="userSpaceOnUse" color-interpolation-filters="sRGB">
<feFlood flood-opacity="0" result="BackgroundImageFix"/>
<feColorMatrix in="SourceAlpha" type="matrix" values="0 0 0 0 0 0 0 0 0 0 0 0 0 0 0 0 0 0 127 0" result="hardAlpha"/>
<feOffset/>
<feGaussianBlur stdDeviation="2"/>
<feComposite in2="hardAlpha" operator="out"/>
<feColorMatrix type="matrix" values="0 0 0 0 0 0 0 0 0 0 0 0 0 0 0 0 0 0 0.25 0"/>
<feBlend mode="normal" in2="BackgroundImageFix" result="effect1_dropShadow_309_2"/>
<feBlend mode="normal" in="SourceGraphic" in2="effect1_dropShadow_309_2" result="shape"/>
</filter>
</defs>
</svg>
