<svg width="505" height="160" viewBox="0 0 505 160" fill="none" xmlns="http://www.w3.org/2000/svg">
<path d="M72.2 3.79999C79.2667 5.66666 80.4 13.6 75.6 27.6C70.9333 41.4667 59.6 59.4667 41.6 81.6C48.2667 77.7333 57.6667 76.2 69.8 77C83 77.8 89.9333 82.3333 90.6 90.6C90.0667 96.6 84.0667 114.067 72.6 143C70.7333 146.867 72.2667 148.133 77.2 146.8C82.2667 145.467 88 141.4 94.4 134.6C100.8 127.8 112.267 111.8 128.8 86.6V92.2C113.333 117.267 101.133 134.133 92.2 142.8C83.4 151.467 75.2667 155.333 67.8 154.4C60.4667 153.333 58.1333 149.267 60.8 142.2L77 99.6C79.1333 93.2 78.2 89.0667 74.2 87.2C70.3333 85.3333 65.8667 84.5333 60.8 84.8C55.8667 85.0667 50.9333 86.2667 46 88.4C41.0667 90.5333 37 94.7333 33.8 101L15.2 147C13.3333 152.333 10.3333 154.867 6.2 154.6C2.2 154.2 1.26667 151.333 3.4 146L24.8 93.2L55.8 15C59.6667 5.53332 65.1333 1.79999 72.2 3.79999ZM45 71.2C54.3333 59.8667 61.4667 49.2 66.4 39.2C71.4667 29.0667 74.2 22 74.6 18C75.1333 13.8667 74.6 11.4 73 10.6C71.4 9.79999 69.9333 10.8667 68.6 13.8C67.2667 16.6 59.4 35.7333 45 71.2ZM165.809 77.6C174.743 79.0667 180.609 82.2 183.409 87C186.209 91.8 186.876 96.6 185.409 101.4C183.943 106.2 180.076 110.333 173.809 113.8C167.543 117.267 161.143 119.533 154.609 120.6C148.209 121.667 142.876 122.4 138.609 122.8C134.343 123.2 128.209 123.867 120.209 124.8C119.809 133.067 121.876 139.067 126.409 142.8C131.076 146.4 136.876 148.4 143.809 148.8C150.743 149.067 158.009 148.333 165.609 146.6C173.209 144.733 181.143 139.667 189.409 131.4C197.809 123 208.609 108.133 221.809 86.8V92.2C208.609 114.6 197.343 130.733 188.009 140.6C178.809 150.467 168.209 156.067 156.209 157.4C144.209 158.6 133.676 157.4 124.609 153.8C115.676 150.067 110.476 143 109.009 132.6C107.543 122.2 109.609 112.133 115.209 102.4C120.809 92.6667 128.409 85.7333 138.009 81.6C147.609 77.4667 156.876 76.1333 165.809 77.6ZM121.209 117.6C140.009 116 153.209 113.867 160.809 111.2C168.409 108.4 173.409 105.267 175.809 101.8C178.343 98.2 178.276 94.6667 175.609 91.2C173.076 87.7333 168.809 85.7333 162.809 85.2C156.943 84.6667 150.809 85.9333 144.409 89C138.009 91.9333 132.809 95.9333 128.809 101C124.809 106.067 122.276 111.6 121.209 117.6ZM288.681 91.2C269.081 123.467 253.881 143.067 243.081 150C238.015 154.533 232.148 156.667 225.481 156.4C218.815 156.133 213.681 154.333 210.081 151C206.348 147.267 205.615 141.067 207.881 132.4C223.081 91.0667 238.015 52.8 252.681 17.6C255.481 10.8 258.748 6.39999 262.481 4.39999C266.348 2.39999 269.281 2.86666 271.281 5.79999C273.415 8.59999 274.015 13.2667 273.081 19.8C272.148 26.3333 270.015 33.5333 266.681 41.4C263.348 49.1333 259.081 57 253.881 65C248.815 72.8667 242.815 80.6667 235.881 88.4L221.281 125C218.748 131.8 217.481 137.067 217.481 140.8C217.481 144.533 219.681 147.2 224.081 148.8C228.615 150.4 235.348 148.4 244.281 142.8C253.348 137.067 268.148 118.133 288.681 86V91.2ZM269.681 10.4C268.615 7.46666 264.948 14.4 258.681 31.2L238.881 80.4C243.148 74.9333 247.081 69.6 250.681 64.4C254.281 59.0667 257.948 52.5333 261.681 44.8C265.415 36.9333 267.948 30 269.281 24C270.748 17.8667 270.881 13.3333 269.681 10.4ZM354.8 91.2C335.2 123.467 320 143.067 309.2 150C304.133 154.533 298.267 156.667 291.6 156.4C284.933 156.133 279.8 154.333 276.2 151C272.467 147.267 271.733 141.067 274 132.4C289.2 91.0667 304.133 52.8 318.8 17.6C321.6 10.8 324.867 6.39999 328.6 4.39999C332.467 2.39999 335.4 2.86666 337.4 5.79999C339.533 8.59999 340.133 13.2667 339.2 19.8C338.267 26.3333 336.133 33.5333 332.8 41.4C329.467 49.1333 325.2 57 320 65C314.933 72.8667 308.933 80.6667 302 88.4L287.4 125C284.867 131.8 283.6 137.067 283.6 140.8C283.6 144.533 285.8 147.2 290.2 148.8C294.733 150.4 301.467 148.4 310.4 142.8C319.467 137.067 334.267 118.133 354.8 86V91.2ZM335.8 10.4C334.733 7.46666 331.067 14.4 324.8 31.2L305 80.4C309.267 74.9333 313.2 69.6 316.8 64.4C320.4 59.0667 324.067 52.5333 327.8 44.8C331.533 36.9333 334.067 30 335.4 24C336.867 17.8667 337 13.3333 335.8 10.4ZM411.319 91.6C414.119 97.3333 414.985 103.467 413.919 110C412.852 116.4 411.119 122.4 408.719 128C406.319 133.467 402.452 139.267 397.119 145.4C402.719 143.8 409.185 139.133 416.519 131.4C423.852 123.533 434.652 108.4 448.919 86V91.8C436.785 112.2 426.652 126.6 418.519 135C410.385 143.267 402.319 148.8 394.319 151.6C386.319 154.267 378.852 155.733 371.919 156C365.119 156.133 358.985 155.4 353.519 153.8C348.052 152.2 343.785 149.867 340.719 146.8C337.785 143.733 335.852 140.667 334.919 137.6C333.985 134.533 333.652 130.6 333.919 125.8C334.185 121 335.119 116.133 336.719 111.2C338.319 106.133 339.985 102 341.719 98.8C343.585 95.4667 346.452 92 350.319 88.4C354.185 84.8 358.919 82.1333 364.519 80.4C370.119 78.5333 376.185 77.6667 382.719 77.8C389.252 77.8 394.919 78.6667 399.719 80.4C404.652 82.1333 408.519 85.8667 411.319 91.6ZM346.919 118.2C345.852 124.333 345.652 129.533 346.319 133.8C347.119 138.067 349.319 141.467 352.919 144C356.652 146.533 360.785 147.867 365.319 148C369.985 148.133 374.452 147.267 378.719 145.4C382.985 143.533 386.585 140.667 389.519 136.8C392.452 132.933 395.185 128.4 397.719 123.2C400.385 117.867 402.052 112.2 402.719 106.2C403.385 100.067 401.785 95.0667 397.919 91.2C394.185 87.3333 389.119 85.4667 382.719 85.6C376.319 85.7333 370.785 87.0667 366.119 89.6C361.452 92 357.385 95.8 353.919 101C350.452 106.2 348.119 111.933 346.919 118.2ZM499.744 6.19999C503.21 6.19999 504.144 8.73332 502.544 13.8L467.144 113.6C465.277 120.4 462.61 123.8 459.144 123.8C455.677 123.667 455.01 120.467 457.144 114.2L492.344 13.8C493.81 8.73332 496.277 6.19999 499.744 6.19999ZM452.544 153C454.144 153 455.61 152.333 456.944 151C458.41 149.667 459.144 148.133 459.144 146.4C459.144 144.667 458.41 143.2 456.944 142C455.61 140.667 454.144 140 452.544 140C451.077 140 449.677 140.667 448.344 142C447.01 143.2 446.277 144.667 446.144 146.4C446.144 148.133 446.81 149.667 448.144 151C449.61 152.333 451.077 153 452.544 153Z" fill="#FF047D"/>
</svg>
