<svg width="46" height="46" viewBox="0 0 46 46" fill="none" xmlns="http://www.w3.org/2000/svg">
<g clip-path="url(#clip0_370_82)">
<path d="M22.8311 15.687H11.9876M22.8311 15.687V1.22656H11.9876C9.11136 1.22656 6.35287 1.98832 4.31903 3.34425C2.28518 4.70018 1.14258 6.53921 1.14258 8.45679C1.14258 10.3744 2.28518 12.2134 4.31903 13.5693C6.35287 14.9253 9.11136 15.687 11.9876 15.687M22.8311 15.687V30.1453H11.9876M22.8311 15.687H33.6745M11.9876 15.687C9.11179 15.687 6.35372 16.4487 4.32018 17.8044C2.28664 19.1601 1.14421 20.9989 1.14421 22.9162C1.14421 24.8334 2.28664 26.6722 4.32018 28.0279C6.35372 29.3837 9.11179 30.1453 11.9876 30.1453M11.9876 30.1453C9.84315 30.1453 7.74682 30.5692 5.96369 31.3635C4.18057 32.1577 2.79073 33.2866 1.96992 34.6075C1.14911 35.9283 0.934189 37.3817 1.35232 38.784C1.77045 40.1862 2.80287 41.4743 4.31903 42.4854C5.83518 43.4965 7.767 44.1852 9.8702 44.4644C11.9734 44.7436 14.1536 44.6007 16.135 44.0539C18.1164 43.5071 19.8102 42.5809 21.0021 41.3923C22.1939 40.2038 22.8304 38.8063 22.8311 37.3766M33.6745 15.687C30.7987 15.687 28.0406 16.4487 26.0071 17.8044C23.9735 19.1601 22.8311 20.9989 22.8311 22.9162C22.8311 24.8334 23.9735 26.6722 26.0071 28.0279C28.0406 29.3837 30.7987 30.1453 33.6745 30.1453C36.5504 30.1453 39.3085 29.3837 41.342 28.0279C43.3755 26.6722 44.518 24.8334 44.518 22.9162C44.518 20.9989 43.3755 19.1601 41.342 17.8044C39.3085 16.4487 36.5504 15.687 33.6745 15.687ZM33.6745 15.687C36.5508 15.687 39.3093 14.9253 41.3431 13.5693C43.377 12.2134 44.5196 10.3744 44.5196 8.45679C44.5196 6.53921 43.377 4.70018 41.3431 3.34425C39.3093 1.98832 36.5508 1.22656 33.6745 1.22656" stroke="white" stroke-width="2.24364" stroke-linecap="round" stroke-linejoin="round"/>
</g>
<defs>
<clipPath id="clip0_370_82">
<rect width="45" height="45" fill="white" transform="translate(0.394531 0.478516)"/>
</clipPath>
</defs>
</svg>
