<svg width="46" height="46" viewBox="0 0 46 46" fill="none" xmlns="http://www.w3.org/2000/svg">
<g clip-path="url(#clip0_370_78)">
<path d="M22.6885 1C17.5393 0.997287 12.5574 2.87451 8.63473 6.29552C4.71207 9.71653 2.10487 14.4579 1.28 19.6706C0.455133 24.8834 1.46646 30.2271 4.13289 34.7448C6.79932 39.2625 10.9467 42.6593 15.8324 44.3268C16.9213 44.5336 17.3145 43.8511 17.3145 43.2928V39.5185C11.2651 40.8627 10.0148 36.5404 10.0148 36.5404C9.61469 35.1728 8.74409 34.0006 7.56479 33.2418C5.59871 31.8665 7.71603 31.8871 7.71603 31.8871C8.4028 31.9857 9.05858 32.2438 9.63341 32.6416C10.2083 33.0394 10.687 33.5665 11.0332 34.1827C12.969 37.5848 16.0744 36.6024 17.3448 36.0337C17.4442 34.9038 17.9341 33.8476 18.7261 33.0556C13.9067 32.4972 8.84527 30.5946 8.84527 22.074C8.81437 19.8638 9.61615 17.7265 11.0836 16.1075C10.4165 14.1909 10.4923 12.0847 11.2953 10.2237C11.2953 10.2237 13.1102 9.624 17.254 12.4987C20.8055 11.506 24.5513 11.506 28.1028 12.4987C32.2467 9.624 34.0615 10.2237 34.0615 10.2237C34.8585 12.0862 34.9342 14.1899 34.2733 16.1075C35.7388 17.727 36.5372 19.8648 36.5015 22.074C36.5015 30.6153 31.4602 32.4869 26.6106 33.0453C27.1309 33.586 27.5317 34.2353 27.7857 34.949C28.0397 35.6627 28.141 36.4241 28.0826 37.1815V43.2824C28.0826 44.0166 28.4758 44.5646 29.5748 44.3165C34.4555 42.6425 38.5963 39.2421 41.2565 34.7238C43.9167 30.2055 44.9226 24.8639 44.0945 19.6545C43.2663 14.4452 40.658 9.70792 36.7362 6.29021C32.8144 2.8725 27.8349 0.997282 22.6885 1Z" stroke="white" stroke-width="2.24364" stroke-linecap="round" stroke-linejoin="round"/>
</g>
<defs>
<clipPath id="clip0_370_78">
<rect width="45" height="45" fill="white" transform="translate(0.478516 0.478516)"/>
</clipPath>
</defs>
</svg>
