<svg width="46" height="46" viewBox="0 0 46 46" fill="none" xmlns="http://www.w3.org/2000/svg">
<path d="M43.1762 1.22656H32.1013C31.7341 1.22656 31.382 1.38598 31.1224 1.66975C30.8627 1.95353 30.7169 2.3384 30.7169 2.73971C30.7169 3.14103 30.8627 3.5259 31.1224 3.80967C31.382 4.09345 31.7341 4.25287 32.1013 4.25287H36.2544V37.1992L18.5482 2.01088C18.4288 1.7733 18.2531 1.57517 18.0396 1.4372C17.8261 1.29923 17.5826 1.22648 17.3346 1.22656H2.56797C2.20081 1.22656 1.84869 1.38598 1.58907 1.66975C1.32945 1.95353 1.18359 2.3384 1.18359 2.73971C1.18359 3.14103 1.32945 3.5259 1.58907 3.80967C1.84869 4.09345 2.20081 4.25287 2.56797 4.25287H6.72109V41.5773H2.56797C2.20081 41.5773 1.84869 41.7367 1.58907 42.0205C1.32945 42.3042 1.18359 42.6891 1.18359 43.0904C1.18359 43.4917 1.32945 43.8766 1.58907 44.1604C1.84869 44.4442 2.20081 44.6036 2.56797 44.6036H13.643C14.0101 44.6036 14.3622 44.4442 14.6219 44.1604C14.8815 43.8766 15.0273 43.4917 15.0273 43.0904C15.0273 42.6891 14.8815 42.3042 14.6219 42.0205C14.3622 41.7367 14.0101 41.5773 13.643 41.5773H9.48983V8.63092L27.196 43.8193C27.3154 44.0568 27.4911 44.255 27.7046 44.3929C27.9181 44.5309 28.1616 44.6037 28.4096 44.6036H37.6388C38.0059 44.6036 38.358 44.4442 38.6177 44.1604C38.8773 43.8766 39.0231 43.4917 39.0231 43.0904V4.25287H43.1762C43.5434 4.25287 43.8955 4.09345 44.1551 3.80967C44.4148 3.5259 44.5606 3.14103 44.5606 2.73971C44.5606 2.3384 44.4148 1.95353 44.1551 1.66975C43.8955 1.38598 43.5434 1.22656 43.1762 1.22656ZM10.4474 4.25287H16.5155L35.2969 41.5773H29.2287L10.4474 4.25287Z" fill="white"/>
</svg>
